<svg width="480" height="127" viewBox="0 0 480 127" fill="none" xmlns="http://www.w3.org/2000/svg">
<path d="M121.317 91.1355H95.0672V58.5053C95.0672 53.5395 94.164 49.9858 92.3578 47.8439C90.5515 45.7021 87.8953 44.6312 84.389 44.6312C80.1297 44.6312 77.0515 45.916 75.1547 48.4856C73.2578 51.0552 72.3094 54.3532 72.3094 58.3796V78.6791H80.625V91.1355H54.375V58.5053C54.375 53.5395 53.4719 49.9858 51.6656 47.8439C49.8594 45.7021 47.2031 44.6312 43.6969 44.6312C39.3437 44.6312 36.2422 45.916 34.3922 48.4856C32.5422 51.0552 31.6094 54.3532 31.5937 58.3796V78.6791H43.5375V91.1355H5.33905V78.6748H13.6734V45.7888H5.47967V33.2154H31.5937V41.9344C35.5719 35.3414 41.9156 32.0448 50.625 32.0448C55.0143 32.0069 59.3328 33.0692 63.1219 35.1188C66.9187 37.1739 69.5578 40.2999 71.039 44.4968C74.7422 36.1897 81.5484 32.0361 91.4578 32.0361C96.9235 31.9778 102.236 33.7068 106.458 36.9181C110.798 40.1785 112.969 45.2339 112.969 52.0842V78.6748H121.303L121.317 91.1355Z" fill="black"/>
<path d="M284.639 91.1355H229.917L228.113 82.4035L261.722 45.6588H242.972L240.197 54.5252L227.278 53.4976L229.5 33.1981H284.503L285.891 41.9345L251.306 78.6748H271.444L274.364 69.5569L288.53 70.8403L284.639 91.1355Z" fill="black"/>
<path d="M299.362 33.1981H317.972V54.0092H299.362V33.1981ZM299.362 70.3243H317.972V91.1355H299.362V70.3243Z" fill="black"/>
<path d="M375.75 2.75314L348.666 91.1398H331.027L358.111 2.75314H375.75Z" fill="black"/>
<path d="M411.305 2.75314L384.22 91.1398H366.581L393.666 2.75314H411.305Z" fill="black"/>
<path d="M417.97 36.025C423.433 33.9699 427.994 32.5781 431.653 31.8497C435.975 31.0643 440.374 30.6982 444.778 30.7571C451.538 30.7571 457.37 32.3844 462.277 35.6391C467.183 38.8937 469.636 43.8176 469.636 50.4107V75.5921C469.636 78.5895 471.072 80.0882 473.944 80.0882C474.839 80.079 475.728 79.949 476.583 79.7023L476.719 88.4474C473.273 90.2056 469.404 91.133 465.469 91.1441C457.225 91.1441 452.642 87.3331 451.72 79.711V79.5809C449.791 82.6728 447.218 85.3799 444.15 87.5455C440.863 89.9417 436.672 91.1412 431.578 91.1441C426.926 91.112 422.387 89.817 418.523 87.4198C414.361 84.9254 412.278 80.6432 412.275 74.5733C412.275 67.4657 415.353 62.7557 421.509 60.4434C427.846 58.0991 434.616 56.9209 441.441 56.9748C444.875 56.9461 448.309 57.117 451.72 57.4864V55.5614C451.727 52.6065 451.284 49.6655 450.403 46.8251C449.509 43.9924 446.523 42.5761 441.445 42.5761C439.748 42.5665 438.053 42.6737 436.373 42.897C434.802 43.1245 433.278 43.5796 431.859 44.2454L429.516 52.4831L415.209 51.0697L417.97 36.025ZM451.72 66.2141V65.4424L447.188 64.9308C445.69 64.7618 444.182 64.6764 442.673 64.675C439.8 64.6204 436.951 65.1689 434.339 66.2791C431.93 67.3515 430.727 69.4716 430.73 72.6396C430.666 74.3608 431.257 76.0482 432.398 77.4088C433.511 78.6921 435.409 79.3338 438.094 79.3338C441.241 79.3338 444.181 78.2846 446.916 76.1861C449.65 74.0877 451.247 70.7637 451.706 66.2141" fill="black"/>
<path d="M175.453 47.7876C151.936 60.9506 159 79.8064 159 79.8064C169.092 110.334 200.681 99.1304 200.681 99.1304C169.092 113.785 145.27 95.302 145.27 95.302C127.205 80.3657 126.52 66.7387 126.52 66.7387C122.484 42.0949 137.016 28.65 137.016 28.65C153.047 12.7815 169.219 11.8493 169.219 11.8493C181.833 10.4489 194.531 14.3684 194.531 14.3684C188.475 15.9552 185.245 19.3153 185.245 19.3153C191.653 23.5643 192.511 26.5949 192.511 26.5949C193.622 30.1892 193.219 34.7633 193.219 34.7633C194.883 41.67 199.627 44.7353 199.627 44.7353C195.938 45.9579 193.017 43.7901 193.017 43.7901C182.067 37.1479 172.031 38.9212 172.031 38.9212C157.031 40.8332 149.325 51.759 149.325 51.759C140.597 65.3903 146.648 77.6646 146.648 77.6646C147.563 60.0011 153.056 56.1467 153.056 56.1467C162.867 47.3453 175.453 47.7876 175.453 47.7876Z" fill="url(#paint0_linear_18_86)"/>
<path d="M183.713 75.5271C211.097 69.6133 221.681 58.1845 221.681 58.1845C222.689 85.382 201.966 97.6389 201.966 97.6389C208.022 89.4879 208.491 82.7633 208.491 82.7633C199.069 89.1107 190.055 90.1686 190.055 90.1686C202.908 80.3353 206.339 74.5602 206.339 74.5602C199.027 76.751 191.212 77.0849 183.713 75.5271Z" fill="url(#paint1_linear_18_86)"/>
<path d="M14.8594 2.42363C18.7688 2.42363 21.2766 3.72433 23.2125 5.45859V10.4012H20.1563V6.96306C19.2188 6.13495 17.2875 5.30684 14.9203 5.30684C12.1594 5.30684 9.90001 6.56852 9.90001 8.58893C9.90001 14.8886 24.2391 10.7568 24.2391 19.6969C24.2391 23.8071 20.2219 25.9662 14.9906 25.9662C10.6172 25.9662 7.81876 24.7046 6.08438 22.6495V18.2401H9.13126V21.093C10.35 22.3937 12.4641 23.0483 15.0094 23.0483C18.0563 23.0483 20.5641 22.0858 20.5641 19.7012C20.5641 13.9305 6.18751 17.7458 6.18751 8.62362C6.18282 5.14209 9.73126 2.42363 14.8594 2.42363Z" fill="black"/>
<path d="M46.0125 19.1679V25.6324H27.6938V23.031H30.2766V5.34153H27.6938V2.74014H36.6938V5.34153H34.1109V22.9139H43.0172V19.1679H46.0125Z" fill="black"/>
<path d="M48.5578 23.0483H51.0937V5.34153H48.5484V2.74014H57.5109V5.34153H55.0031V23.0483H57.5109V25.6497H48.5578V23.0483Z" fill="black"/>
<path d="M61.4062 23.0483H63.9516V5.34153H61.4062V2.74014H70.3687V5.34153H67.8609V23.0483H70.3687V25.6497H61.4062V23.0483Z" fill="black"/>
<path d="M94.1578 9.28697H91.1484V5.47159H85.6265V23.0483H88.1719V25.6497H79.1719V23.0483H81.7547V5.47159H76.2V9.28697H73.1906V2.75314H94.1625L94.1578 9.28697Z" fill="black"/>
<path d="M285.872 103.787C288.684 103.787 290.831 104.589 292.247 106.05V109.415H289.158V107.568C288.577 106.913 287.353 106.375 285.844 106.375C282.656 106.375 281.109 108.699 281.109 111.617C281.109 114.682 282.717 116.859 285.905 116.859C286.737 116.879 287.559 116.691 288.284 116.314C289.01 115.937 289.611 115.385 290.025 114.717L292.763 115.788C291.895 118.021 289.416 119.452 285.905 119.452C280.786 119.452 277.631 116.386 277.631 111.621C277.631 107.446 280.561 103.787 285.872 103.787Z" fill="black"/>
<path d="M310.983 118.797C310.328 119.147 309.582 119.323 308.827 119.304C308.081 119.349 307.344 119.131 306.765 118.695C306.186 118.258 305.807 117.635 305.705 116.95C305.672 116.711 305.705 116.516 305.672 116.204H305.625C304.758 118.199 302.63 119.452 299.798 119.452C296.967 119.452 295.036 117.964 295.036 115.701C295.036 112.515 298.641 110.498 305.114 110.342V109.54C305.114 107.633 303.708 106.384 301.8 106.384C300.061 106.384 298.744 107.251 298.486 108.5L295.673 107.815C295.866 105.79 298.219 103.796 301.95 103.796C305.681 103.796 308.616 105.82 308.616 110.017V115.654C308.616 116.43 309.033 116.785 309.68 116.785C310.002 116.762 310.319 116.692 310.617 116.577L310.983 118.797ZM305.091 112.931V112.497C300.553 112.645 298.491 113.629 298.491 115.207C298.491 116.369 299.297 116.993 300.778 116.993C302.995 117.006 305.091 114.951 305.091 112.926V112.931Z" fill="black"/>
<path d="M318.319 105.096V106.02C318.322 106.537 318.289 107.054 318.22 107.568H318.38C319.378 105.187 321.117 103.787 324.08 103.787C326.686 103.787 328.458 105.088 329.039 107.689H329.105C330.042 105.187 331.917 103.787 334.833 103.787C338.405 103.787 340.458 106.198 340.458 109.891V116.92H342.839V119.152H337.055V110.455C337.055 108.162 335.897 106.553 333.675 106.553C331.261 106.553 329.489 109.154 329.489 112.506V116.911H331.833V119.144H326.142V110.455C326.142 108.162 325.017 106.553 322.795 106.553C320.381 106.553 318.609 109.115 318.609 112.506V116.911H321.056V119.144H312.848V116.911H315.192V106.505H312.848V104.064H317.227C317.376 104.05 317.526 104.068 317.668 104.115C317.809 104.162 317.936 104.238 318.041 104.337C318.146 104.436 318.226 104.556 318.274 104.687C318.322 104.819 318.337 104.959 318.319 105.096Z" fill="black"/>
<path d="M362.231 111.556C362.231 116.352 359.109 119.447 354.263 119.447C352.665 119.457 351.123 118.904 349.95 117.899V123.497H352.556V125.699H344.33V123.497H346.645V106.497H344.302V104.086H348.68C348.827 104.07 348.977 104.085 349.117 104.13C349.258 104.175 349.385 104.249 349.49 104.347C349.595 104.444 349.675 104.562 349.724 104.692C349.773 104.821 349.789 104.96 349.772 105.096L349.739 105.751C349.739 106.199 349.707 106.647 349.641 107.091H349.739C350.639 105.127 352.411 103.787 355.566 103.817C359.559 103.813 362.231 106.913 362.231 111.556ZM358.786 111.556C358.786 108.461 357.206 106.436 354.506 106.436C351.9 106.436 350.095 108.37 350.095 111.886V115.354C351.061 116.365 352.411 116.785 353.991 116.785C357.08 116.798 358.786 114.804 358.786 111.556Z" fill="black"/>
<path d="M383.475 118.823C382.814 119.119 382.086 119.268 381.352 119.256C379.547 119.256 378.539 118.303 378.197 117.115C378.129 116.801 378.096 116.481 378.098 116.161H378.033C377.548 117.154 376.759 117.993 375.763 118.575C374.767 119.157 373.609 119.455 372.431 119.434C368.681 119.434 366.605 117.08 366.605 113.122V106.271H364.219V104.069H368.906C369.055 104.052 369.207 104.066 369.349 104.111C369.492 104.155 369.622 104.228 369.73 104.325C369.837 104.422 369.921 104.54 369.973 104.67C370.025 104.801 370.045 104.94 370.031 105.079V112.61C370.031 115.172 371.189 116.659 373.252 116.659C375.698 116.659 377.564 114.158 377.564 111.89V106.254H375.052V104.051H379.912C380.06 104.038 380.208 104.055 380.347 104.101C380.486 104.147 380.613 104.221 380.717 104.317C380.822 104.414 380.902 104.531 380.951 104.66C381.001 104.788 381.019 104.926 381.005 105.062V115.662C381.005 116.464 381.473 116.794 382.069 116.794C382.394 116.789 382.714 116.718 383.006 116.586L383.475 118.823Z" fill="black"/>
<path d="M398.283 105.274V108.847H395.353V106.969C394.37 106.461 393.259 106.204 392.133 106.224C390.328 106.224 389.17 106.761 389.17 107.893C389.17 111.257 398.892 109.471 398.892 115.19C398.892 117.991 396.028 119.417 392.166 119.417C389.461 119.417 387.272 118.823 385.73 117.392V114.205H388.659V116.139C389.716 116.754 390.951 117.057 392.198 117.006C394.261 117.006 395.545 116.412 395.545 115.19C395.545 111.765 385.856 113.889 385.856 107.893C385.856 105.291 388.237 103.783 392.006 103.783C395.03 103.787 396.9 104.351 398.283 105.274Z" fill="black"/>
<path d="M417.37 103.787C420.183 103.787 422.33 104.589 423.745 106.05V109.415H420.656V107.568C420.075 106.913 418.852 106.375 417.342 106.375C414.155 106.375 412.608 108.699 412.608 111.617C412.608 114.682 414.216 116.859 417.403 116.859C418.235 116.879 419.057 116.691 419.783 116.314C420.508 115.937 421.11 115.385 421.523 114.717L424.261 115.788C423.394 118.021 420.914 119.452 417.403 119.452C412.284 119.452 409.13 116.386 409.13 111.621C409.13 107.446 412.059 103.787 417.37 103.787Z" fill="black"/>
<path d="M431.986 98.7229V116.933H434.433V119.165H426.127V116.933H428.573V100.123H426.159V97.7126H430.894C431.041 97.6991 431.189 97.716 431.328 97.762C431.468 97.808 431.594 97.882 431.698 97.9786C431.803 98.0753 431.883 98.1921 431.933 98.3208C431.982 98.4495 432.001 98.5869 431.986 98.7229Z" fill="black"/>
<path d="M455.1 118.823C454.439 119.119 453.711 119.268 452.977 119.256C451.172 119.256 450.164 118.303 449.822 117.115C449.754 116.801 449.721 116.481 449.723 116.161H449.658C449.173 117.154 448.384 117.993 447.388 118.575C446.392 119.157 445.234 119.455 444.056 119.434C440.306 119.434 438.23 117.08 438.23 113.122V106.271H435.848V104.069H440.536C440.685 104.052 440.837 104.066 440.979 104.111C441.122 104.155 441.251 104.228 441.359 104.325C441.467 104.422 441.55 104.54 441.602 104.67C441.655 104.801 441.675 104.94 441.661 105.079V112.61C441.661 115.172 442.819 116.659 444.881 116.659C447.328 116.659 449.194 114.158 449.194 111.89V106.254H446.719V104.051H451.58C451.727 104.038 451.875 104.055 452.014 104.101C452.153 104.147 452.28 104.221 452.384 104.317C452.489 104.414 452.569 104.531 452.619 104.66C452.668 104.788 452.686 104.926 452.672 105.062V115.662C452.672 116.464 453.141 116.794 453.736 116.794C454.061 116.789 454.381 116.718 454.673 116.586L455.1 118.823Z" fill="black"/>
<path d="M473.869 111.556C473.869 116.352 470.747 119.447 466.144 119.447C464.081 119.447 462.122 118.732 461.156 117.453L460.833 119.148H458.288V99.8545H455.906V97.6216L460.636 97.6519C460.786 97.6386 460.937 97.6566 461.079 97.7045C461.221 97.7525 461.349 97.8292 461.454 97.9291C461.559 98.0289 461.639 98.1494 461.687 98.2815C461.735 98.4136 461.751 98.5541 461.733 98.6925L461.719 105.096C461.719 105.573 461.686 106.167 461.653 106.397H461.719C462.558 104.936 464.358 103.796 466.964 103.796C471.164 103.813 473.869 106.852 473.869 111.556ZM470.391 111.556C470.391 108.4 468.844 106.436 466.111 106.436C463.566 106.436 461.7 108.521 461.7 111.617V115.328C462.6 116.339 464.147 116.79 465.595 116.79C468.619 116.798 470.391 114.773 470.391 111.556Z" fill="black"/>
<defs>
<linearGradient id="paint0_linear_18_86" x1="125.798" y1="58.1671" x2="200.686" y2="58.1671" gradientUnits="userSpaceOnUse">
<stop stop-color="#FF4E00"/>
<stop offset="1" stop-color="#FF422A"/>
</linearGradient>
<linearGradient id="paint1_linear_18_86" x1="183.713" y1="77.8944" x2="221.695" y2="77.8944" gradientUnits="userSpaceOnUse">
<stop stop-color="#FF4E00"/>
<stop offset="1" stop-color="#FF422A"/>
</linearGradient>
</defs>
</svg>
